<svg width="122" height="48" viewBox="0 0 122 48" fill="none" xmlns="http://www.w3.org/2000/svg">
<path d="M43.8594 31.8359H51.0195V35H39.7461V17.9375H43.8594V31.8359ZM52.0742 28.543C52.0742 27.2773 52.3203 26.1523 52.8125 25.168C53.3047 24.1758 54.0117 23.4141 54.9336 22.8828C55.8555 22.3516 56.9375 22.0859 58.1797 22.0859C60.0781 22.0859 61.5742 22.6758 62.668 23.8555C63.7617 25.0273 64.3086 26.625 64.3086 28.6484V28.7891C64.3086 30.7656 63.7578 32.3359 62.6562 33.5C61.5625 34.6562 60.0781 35.2344 58.2031 35.2344C56.3984 35.2344 54.9492 34.6953 53.8555 33.6172C52.7617 32.5312 52.1719 31.0625 52.0859 29.2109L52.0742 28.543ZM56.0234 28.7891C56.0234 29.9609 56.207 30.8203 56.5742 31.3672C56.9414 31.9141 57.4844 32.1875 58.2031 32.1875C59.6094 32.1875 60.3281 31.1055 60.3594 28.9414V28.543C60.3594 26.2695 59.6328 25.1328 58.1797 25.1328C56.8594 25.1328 56.1445 26.1133 56.0352 28.0742L56.0234 28.7891ZM65.5859 28.5664C65.5859 27.2852 65.7969 26.1523 66.2188 25.168C66.6406 24.1836 67.2461 23.4258 68.0352 22.8945C68.8242 22.3555 69.7422 22.0859 70.7891 22.0859C72.1094 22.0859 73.1406 22.5312 73.8828 23.4219L74.0234 22.3203H77.6094V34.5195C77.6094 35.6367 77.3477 36.6055 76.8242 37.4258C76.3086 38.2539 75.5586 38.8867 74.5742 39.3242C73.5898 39.7695 72.4492 39.9922 71.1523 39.9922C70.2227 39.9922 69.3203 39.8164 68.4453 39.4648C67.5781 39.1133 66.9141 38.6562 66.4531 38.0938L68.1055 35.7734C68.8398 36.6406 69.8086 37.0742 71.0117 37.0742C72.7617 37.0742 73.6367 36.1758 73.6367 34.3789V33.9805C72.8789 34.8164 71.9219 35.2344 70.7656 35.2344C69.2188 35.2344 67.9688 34.6445 67.0156 33.4648C66.0625 32.2773 65.5859 30.6914 65.5859 28.707V28.5664ZM69.5469 28.8125C69.5469 29.8516 69.7422 30.6758 70.1328 31.2852C70.5234 31.8867 71.0703 32.1875 71.7734 32.1875C72.625 32.1875 73.2461 31.9023 73.6367 31.332V26C73.2539 25.4219 72.6406 25.1328 71.7969 25.1328C71.0938 25.1328 70.543 25.4492 70.1445 26.082C69.7461 26.707 69.5469 27.6172 69.5469 28.8125Z" fill="#8C8C8C"/>
<path d="M80.0352 35V17.9375H85.5312C87.0391 17.9375 88.3945 18.2812 89.5977 18.9688C90.8008 19.6484 91.7383 20.6133 92.4102 21.8633C93.0898 23.1055 93.4336 24.5 93.4414 26.0469V26.832C93.4414 28.3945 93.1094 29.7969 92.4453 31.0391C91.7891 32.2734 90.8594 33.2422 89.6562 33.9453C88.4609 34.6406 87.125 34.9922 85.6484 35H80.0352ZM84.1484 21.1133V31.8359H85.5781C86.7578 31.8359 87.6641 31.418 88.2969 30.582C88.9297 29.7383 89.2461 28.4883 89.2461 26.832V26.0938C89.2461 24.4453 88.9297 23.2031 88.2969 22.3672C87.6641 21.5312 86.7422 21.1133 85.5312 21.1133H84.1484ZM94.8711 28.543C94.8711 27.2773 95.1172 26.1523 95.6094 25.168C96.1016 24.1758 96.8086 23.4141 97.7305 22.8828C98.6523 22.3516 99.7344 22.0859 100.977 22.0859C102.875 22.0859 104.371 22.6758 105.465 23.8555C106.559 25.0273 107.105 26.625 107.105 28.6484V28.7891C107.105 30.7656 106.555 32.3359 105.453 33.5C104.359 34.6562 102.875 35.2344 101 35.2344C99.1953 35.2344 97.7461 34.6953 96.6523 33.6172C95.5586 32.5312 94.9688 31.0625 94.8828 29.2109L94.8711 28.543ZM98.8203 28.7891C98.8203 29.9609 99.0039 30.8203 99.3711 31.3672C99.7383 31.9141 100.281 32.1875 101 32.1875C102.406 32.1875 103.125 31.1055 103.156 28.9414V28.543C103.156 26.2695 102.43 25.1328 100.977 25.1328C99.6562 25.1328 98.9414 26.1133 98.832 28.0742L98.8203 28.7891ZM108.383 28.5664C108.383 27.2852 108.594 26.1523 109.016 25.168C109.438 24.1836 110.043 23.4258 110.832 22.8945C111.621 22.3555 112.539 22.0859 113.586 22.0859C114.906 22.0859 115.938 22.5312 116.68 23.4219L116.82 22.3203H120.406V34.5195C120.406 35.6367 120.145 36.6055 119.621 37.4258C119.105 38.2539 118.355 38.8867 117.371 39.3242C116.387 39.7695 115.246 39.9922 113.949 39.9922C113.02 39.9922 112.117 39.8164 111.242 39.4648C110.375 39.1133 109.711 38.6562 109.25 38.0938L110.902 35.7734C111.637 36.6406 112.605 37.0742 113.809 37.0742C115.559 37.0742 116.434 36.1758 116.434 34.3789V33.9805C115.676 34.8164 114.719 35.2344 113.562 35.2344C112.016 35.2344 110.766 34.6445 109.812 33.4648C108.859 32.2773 108.383 30.6914 108.383 28.707V28.5664ZM112.344 28.8125C112.344 29.8516 112.539 30.6758 112.93 31.2852C113.32 31.8867 113.867 32.1875 114.57 32.1875C115.422 32.1875 116.043 31.9023 116.434 31.332V26C116.051 25.4219 115.438 25.1328 114.594 25.1328C113.891 25.1328 113.34 25.4492 112.941 26.082C112.543 26.707 112.344 27.6172 112.344 28.8125Z" fill="black"/>
<path d="M21.752 17.322C22.526 17.754 23.448 18 24.492 18C26.186 18 27.602 17.386 28.586 16.312C29.548 15.26 29.992 13.88 29.992 12.5C29.992 12.1022 29.834 11.7206 29.5527 11.4393C29.2714 11.158 28.8898 11 28.492 11C28.0942 11 27.7127 11.158 27.4314 11.4393C27.15 11.7206 26.992 12.1022 26.992 12.5C26.992 13.254 26.752 13.872 26.372 14.288C26.012 14.68 25.428 15 24.492 15C23.594 15 23.032 14.676 22.664 14.26C22.2707 13.7843 22.0382 13.1961 22 12.58V8.5C22 7.30653 22.4741 6.16193 23.318 5.31802C24.1619 4.47411 25.3065 4 26.5 4H32.87C33.888 4 34.884 4.282 35.75 4.816L41.286 8.222C41.5043 8.35629 41.6845 8.54426 41.8095 8.76798C41.9345 8.99171 42.0001 9.24373 42 9.5V12.5C42 13.6935 41.5259 14.8381 40.682 15.682C39.8381 16.5259 38.6935 17 37.5 17H37V36.066C38.84 36.242 40.236 36.798 41.094 37.994C41.608 38.712 41.814 39.514 41.91 40.252C42 40.956 42 41.724 42 42.432V42.5C42 42.8978 41.842 43.2794 41.5607 43.5607C41.2794 43.842 40.8978 44 40.5 44H33.996V42.452C33.996 41.308 34 38.036 30.996 36.114V30.506C30.996 30.1082 30.838 29.7266 30.5567 29.4453C30.2754 29.164 29.8938 29.006 29.496 29.006C29.0982 29.006 28.7167 29.164 28.4354 29.4453C28.154 29.7266 27.996 30.1082 27.996 30.506V35.038C27.5331 34.9882 27.0671 34.9735 26.602 34.994C26.55 34.994 26.504 34.998 26.474 35H26.424L26.418 35.002C26.0207 35.0237 25.6483 35.2024 25.3828 35.4987C25.1172 35.795 24.9803 36.1847 25.002 36.582C25.0238 36.9793 25.2024 37.3517 25.4988 37.6172C25.7951 37.8828 26.1847 38.0197 26.582 37.998H26.588L26.614 37.996L26.714 37.992C26.796 37.988 26.9 37.986 26.996 37.986C27.86 37.986 28.426 38.132 28.798 38.326L28.864 38.36C30.942 39.328 30.996 41.238 30.996 42.5V44H11.666C9.98786 44.0015 8.35558 43.4522 7.01968 42.4365C5.68377 41.4209 4.71806 39.9949 4.27072 38.3775C3.82339 36.76 3.91916 35.0405 4.54333 33.4827C5.1675 31.925 6.28559 30.615 7.72601 29.754C8.06735 29.5493 8.47604 29.4885 8.86217 29.5851C9.24831 29.6816 9.58027 29.9277 9.78501 30.269C9.98976 30.6103 10.0505 31.019 9.95395 31.4052C9.85737 31.7913 9.61135 32.1233 9.27001 32.328C8.39295 32.8518 7.71202 33.6489 7.33174 34.5971C6.95146 35.5452 6.89285 36.592 7.16491 37.5766C7.43696 38.5613 8.02465 39.4295 8.83776 40.0479C9.65086 40.6663 10.6445 41.0008 11.666 41C12.304 41 12.7 40.834 12.964 40.648C13.242 40.452 13.46 40.172 13.626 39.834C13.8356 39.4013 13.9625 38.9333 14 38.454V38.384L14.008 38.098C14.0678 36.6287 14.2417 35.1663 14.528 33.724C15.048 31.142 16.122 27.788 18.432 25.446C20.128 23.726 21.05 21.208 21.526 18.718C21.618 18.242 21.692 17.774 21.752 17.322V17.322Z" fill="#1689AD"/>
</svg>
